<svg width="461" height="132" viewBox="0 0 461 132" fill="none" xmlns="http://www.w3.org/2000/svg">
<path d="M84.3633 92.9512C79.806 96.8704 74.7018 99.8783 69.0508 101.975C63.3997 104.071 57.5436 105.119 51.4824 105.119C46.834 105.119 42.3451 104.504 38.0156 103.273C33.7318 102.089 29.6986 100.402 25.916 98.2148C22.179 95.9818 18.7611 93.3158 15.6621 90.2168C12.5632 87.1178 9.89714 83.6999 7.66406 79.9629C5.47656 76.1803 3.76758 72.1471 2.53711 67.8633C1.35221 63.5339 0.759766 59.0449 0.759766 54.3965C0.759766 49.748 1.35221 45.2591 2.53711 40.9297C3.76758 36.6003 5.47656 32.5671 7.66406 28.8301C9.89714 25.0475 12.5632 21.6068 15.6621 18.5078C18.7611 15.4089 22.179 12.7656 25.916 10.5781C29.6986 8.34505 33.7318 6.63607 38.0156 5.45117C42.3451 4.2207 46.834 3.60547 51.4824 3.60547C57.5436 3.60547 63.3997 4.65365 69.0508 6.75C74.7018 8.80078 79.806 11.8086 84.3633 15.7734L73.9727 32.8633C71.1016 29.7643 67.7064 27.3945 63.7871 25.7539C59.8678 24.0677 55.7663 23.2246 51.4824 23.2246C47.153 23.2246 43.097 24.0449 39.3145 25.6855C35.5319 27.3262 32.2279 29.5592 29.4023 32.3848C26.5768 35.1647 24.3438 38.4688 22.7031 42.2969C21.0625 46.0794 20.2422 50.1126 20.2422 54.3965C20.2422 58.6803 21.0625 62.7135 22.7031 66.4961C24.3438 70.2331 26.5768 73.5143 29.4023 76.3398C32.2279 79.1654 35.5319 81.3984 39.3145 83.0391C43.097 84.6797 47.153 85.5 51.4824 85.5C55.7663 85.5 59.8678 84.6797 63.7871 83.0391C67.7064 81.3529 71.1016 78.9603 73.9727 75.8613L84.3633 92.9512ZM112.596 103H93.7969V0.666016H112.596V103ZM197.771 103H193.26L186.014 92.9512C184.236 94.5462 182.345 96.0501 180.34 97.4629C178.38 98.8301 176.307 100.038 174.119 101.086C171.932 102.089 169.676 102.886 167.352 103.479C165.073 104.071 162.749 104.367 160.379 104.367C155.229 104.367 150.376 103.501 145.818 101.77C141.307 100.038 137.342 97.5312 133.924 94.25C130.551 90.9232 127.885 86.8672 125.926 82.082C123.966 77.2969 122.986 71.8509 122.986 65.7441C122.986 60.0475 123.966 54.8294 125.926 50.0898C127.885 45.3047 130.551 41.2031 133.924 37.7852C137.342 34.3672 141.307 31.724 145.818 29.8555C150.376 27.9414 155.229 26.9844 160.379 26.9844C162.749 26.9844 165.096 27.2806 167.42 27.873C169.744 28.4655 172 29.2858 174.188 30.334C176.375 31.3822 178.449 32.6126 180.408 34.0254C182.413 35.4382 184.282 36.9648 186.014 38.6055L193.26 29.9238H197.771V103ZM178.973 65.7441C178.973 63.1921 178.471 60.7311 177.469 58.3613C176.512 55.946 175.19 53.8268 173.504 52.0039C171.818 50.1354 169.835 48.6543 167.557 47.5605C165.324 46.4212 162.931 45.8516 160.379 45.8516C157.827 45.8516 155.411 46.2845 153.133 47.1504C150.9 48.0163 148.94 49.2923 147.254 50.9785C145.613 52.6647 144.314 54.7611 143.357 57.2676C142.4 59.7285 141.922 62.554 141.922 65.7441C141.922 68.9342 142.4 71.7826 143.357 74.2891C144.314 76.75 145.613 78.8236 147.254 80.5098C148.94 82.196 150.9 83.472 153.133 84.3379C155.411 85.2038 157.827 85.6367 160.379 85.6367C162.931 85.6367 165.324 85.0898 167.557 83.9961C169.835 82.8568 171.818 81.3757 173.504 79.5527C175.19 77.6842 176.512 75.5651 177.469 73.1953C178.471 70.7799 178.973 68.2962 178.973 65.7441ZM252.254 103H209.598V84.4062H252.254C253.53 84.4062 254.624 83.9505 255.535 83.0391C256.447 82.1276 256.902 81.0339 256.902 79.7578C256.902 78.4362 256.447 77.5703 255.535 77.1602C254.624 76.75 253.53 76.5449 252.254 76.5449H232.84C229.604 76.5449 226.574 75.9297 223.748 74.6992C220.923 73.4688 218.462 71.8053 216.365 69.709C214.269 67.5671 212.605 65.0833 211.375 62.2578C210.19 59.4323 209.598 56.4017 209.598 53.166C209.598 49.9303 210.19 46.8997 211.375 44.0742C212.605 41.2487 214.269 38.7878 216.365 36.6914C218.462 34.5951 220.923 32.9544 223.748 31.7695C226.574 30.5391 229.604 29.9238 232.84 29.9238H270.643V48.5176H232.84C231.564 48.5176 230.47 48.9733 229.559 49.8848C228.647 50.7962 228.191 51.89 228.191 53.166C228.191 54.4876 228.647 55.627 229.559 56.584C230.47 57.4954 231.564 57.9512 232.84 57.9512H252.254C255.444 57.9512 258.452 58.498 261.277 59.5918C264.103 60.64 266.564 62.1211 268.66 64.0352C270.757 65.9492 272.42 68.2507 273.65 70.9395C274.881 73.6283 275.496 76.5677 275.496 79.7578C275.496 82.9935 274.881 86.0241 273.65 88.8496C272.42 91.6296 270.757 94.0905 268.66 96.2324C266.564 98.3288 264.103 99.9922 261.277 101.223C258.452 102.408 255.444 103 252.254 103ZM325.672 103H283.016V84.4062H325.672C326.948 84.4062 328.042 83.9505 328.953 83.0391C329.865 82.1276 330.32 81.0339 330.32 79.7578C330.32 78.4362 329.865 77.5703 328.953 77.1602C328.042 76.75 326.948 76.5449 325.672 76.5449H306.258C303.022 76.5449 299.992 75.9297 297.166 74.6992C294.34 73.4688 291.88 71.8053 289.783 69.709C287.687 67.5671 286.023 65.0833 284.793 62.2578C283.608 59.4323 283.016 56.4017 283.016 53.166C283.016 49.9303 283.608 46.8997 284.793 44.0742C286.023 41.2487 287.687 38.7878 289.783 36.6914C291.88 34.5951 294.34 32.9544 297.166 31.7695C299.992 30.5391 303.022 29.9238 306.258 29.9238H344.061V48.5176H306.258C304.982 48.5176 303.888 48.9733 302.977 49.8848C302.065 50.7962 301.609 51.89 301.609 53.166C301.609 54.4876 302.065 55.627 302.977 56.584C303.888 57.4954 304.982 57.9512 306.258 57.9512H325.672C328.862 57.9512 331.87 58.498 334.695 59.5918C337.521 60.64 339.982 62.1211 342.078 64.0352C344.174 65.9492 345.838 68.2507 347.068 70.9395C348.299 73.6283 348.914 76.5677 348.914 79.7578C348.914 82.9935 348.299 86.0241 347.068 88.8496C345.838 91.6296 344.174 94.0905 342.078 96.2324C339.982 98.3288 337.521 99.9922 334.695 101.223C331.87 102.408 328.862 103 325.672 103ZM376.531 130.891V112.092L386.922 112.229C388.745 112.229 390.499 111.932 392.186 111.34C393.872 110.747 395.421 109.927 396.834 108.879C398.292 107.831 399.568 106.577 400.662 105.119C401.756 103.706 402.645 102.157 403.328 100.471C401.277 101.337 399.181 102.202 397.039 103.068C394.943 103.934 392.824 104.367 390.682 104.367C386.17 104.367 381.932 103.57 377.967 101.975C374.002 100.38 370.516 98.1237 367.508 95.207C364.546 92.2448 362.199 88.6673 360.467 84.4746C358.781 80.2363 357.938 75.4967 357.938 70.2559V29.7871H376.531V70.2559C376.531 72.8535 376.896 75.1322 377.625 77.0918C378.4 79.0059 379.425 80.6237 380.701 81.9453C381.977 83.2214 383.458 84.1784 385.145 84.8164C386.876 85.4544 388.722 85.7734 390.682 85.7734C392.596 85.7734 394.396 85.3405 396.082 84.4746C397.814 83.5632 399.318 82.3783 400.594 80.9199C401.87 79.4616 402.872 77.821 403.602 75.998C404.331 74.1296 404.695 72.2155 404.695 70.2559V29.7871H423.494V93.7715C423.449 98.9212 422.446 103.752 420.486 108.264C418.527 112.775 415.838 116.717 412.42 120.09C409.048 123.462 405.105 126.128 400.594 128.088C396.082 130.048 391.251 131.027 386.102 131.027L376.531 130.891ZM460.75 96.0273C460.75 97.668 460.454 99.2174 459.861 100.676C459.269 102.089 458.449 103.319 457.4 104.367C456.352 105.415 455.122 106.236 453.709 106.828C452.296 107.466 450.77 107.785 449.129 107.785C447.534 107.785 446.007 107.466 444.549 106.828C443.136 106.236 441.883 105.415 440.789 104.367C439.741 103.319 438.898 102.089 438.26 100.676C437.667 99.2174 437.371 97.668 437.371 96.0273C437.371 94.4323 437.667 92.9284 438.26 91.5156C438.898 90.1029 439.741 88.8724 440.789 87.8242C441.883 86.776 443.136 85.9557 444.549 85.3633C446.007 84.7253 447.534 84.4062 449.129 84.4062C450.77 84.4062 452.296 84.7253 453.709 85.3633C455.122 85.9557 456.352 86.776 457.4 87.8242C458.449 88.8724 459.269 90.1029 459.861 91.5156C460.454 92.9284 460.75 94.4323 460.75 96.0273Z" fill="#F2F2F2"/>
</svg>
